<?xml version="1.0" encoding="utf-8"?>
<!-- Generator: Adobe Illustrator 17.0.0, SVG Export Plug-In . SVG Version: 6.00 Build 0)  -->
<!DOCTYPE svg PUBLIC "-//W3C//DTD SVG 1.1//EN" "http://www.w3.org/Graphics/SVG/1.1/DTD/svg11.dtd">
<svg version="1.1" id="Layer_1" xmlns="http://www.w3.org/2000/svg" xmlns:xlink="http://www.w3.org/1999/xlink" x="0px" y="0px"
	 width="1048px" height="1048px" viewBox="0 0 1048 1048" style="enable-background:new 0 0 1048 1048;" xml:space="preserve">
<g id="logo-sq.svg">
	<rect x="0" y="0" style="fill:none;" width="1048" height="1048"/>
	<g>
		<path style="fill:#424242;" d="M455.3,365.2c0.1,1.1,0.2,1.9,0.3,2.6c1.9,8.4,7.3,13.8,14.9,17.2c4.7,2,9.6,2.8,14.7,3.1
			c6.7,0.4,13.4-0.3,20-1.4c5.1-0.9,10.2-2,15-4c0.2-0.1,0.5-0.1,0.7-0.1c0.8,1.7,3.8,18.6,4.8,27.1c-1.1,0.5-2.4,1-3.6,1.5
			c-5.8,2.1-11.8,3.3-17.9,4.3c-8.3,1.3-16.7,1.9-25.1,1.5c-10.4-0.4-20.4-2.6-29.7-7.5c-12.7-6.8-21.2-17.1-25.4-30.8
			c-4.7-15.6-5-31.4-0.1-47c5.2-16.7,15.6-29.2,32-36.1c9.3-3.9,19-4.9,28.9-4c9,0.8,17.6,3.3,25.2,8.4
			c10.6,7.1,16.9,17.2,20.1,29.4c1.4,5.3,2.1,10.8,2.5,16.3c0.4,5.4,0.1,10.9-0.2,16.3c0,1-0.3,2-0.4,3.3
			C506.5,365.2,481,365.2,455.3,365.2z M500.4,342c-0.3-2-0.4-3.8-0.8-5.6c-1.3-6.5-4.6-11.7-10.5-15c-3.8-2.1-7.8-2.6-12.1-2.4
			c-8.3,0.3-14.6,4-18.3,11.5c-1.5,3.1-2.3,6.6-3.3,10c-0.1,0.4,0,0.9,0,1.6C470.4,342,485.2,342,500.4,342z"/>
		<path style="fill:#424242;" d="M836.8,298.1c5.3-1.1,10.4-2.3,15.6-3.3c12.4-2.3,24.8-3.4,37.4-3.2c8.2,0.1,16.2,1.1,23.9,4.2
			c12.7,5.2,20.1,14.8,23.4,27.9c1.7,6.5,2.5,13.2,2.5,19.9c0,22.6,0,45.1,0,67.7c0,0.7,0,1.4,0,2.5c-2.8,0.4-5.6,0.1-8.4,0.2
			c-2.8,0-5.6,0-8.4,0c-2.7,0-5.4,0-8.2,0c-2.8,0-5.6,0-8.6,0c-0.1-1.2-0.2-2.2-0.2-3.2c0-20.9,0-41.7,0-62.6
			c0-4.9-0.4-9.7-1.6-14.5c-0.3-1.3-0.8-2.6-1.3-3.8c-1.9-4.9-5.6-7.6-10.6-8.8c-1.5-0.4-3.2-0.7-4.7-0.6c-4.9,0.1-9.9,0.4-14.8,0.7
			c-0.7,0-1.4,0.3-2.4,0.5c0,30.7,0,61.3,0,92.3c-11.4,0-22.5,0-33.6,0C836.8,375.2,836.8,336.9,836.8,298.1z"/>
		<path style="fill:#424242;" d="M207.7,413.5c-2.5,0.6-31.7,0.6-33.7,0c0-38.2,0-76.5,0-115.1c0.8-0.2,1.6-0.6,2.6-0.8
			c10.6-2.6,21.4-4.5,32.3-5.4c8.1-0.7,16.3-0.9,24.4-0.3c6.1,0.4,12,1.6,17.7,4c12,4.9,19.4,14,22.9,26.3c2.1,7.3,3,14.9,3,22.5
			c0,22.2,0,44.5,0,66.7c0,0.7-0.1,1.4-0.1,2.1c-1.9,0.6-31,0.7-33.5,0c0-1,0-2,0-3c0-20.1,0-40.2,0-60.2c0-4.9-0.2-9.7-1.3-14.5
			c-0.3-1.2-0.6-2.3-0.9-3.5c-1.8-6.5-5.8-11.2-15.1-11.7c-5.3-0.3-10.7,0.3-16,0.5c-0.7,0-1.4,0.3-2.3,0.5
			C207.7,352.2,207.7,382.8,207.7,413.5z"/>
		<path style="fill:#424242;" d="M633.1,323.3c-4.8-1.3-9.2-2.6-13.6-3.5c-7.3-1.6-14.7-2-22.1-0.7c-1.5,0.3-3.1,0.8-4.5,1.6
			c-5.1,2.7-5.7,9.6-1.1,13c2.6,1.9,5.6,3.4,8.6,4.7c4.5,2,9.1,3.4,13.6,5.4c4.9,2.2,9.7,4.5,14.4,7.1c2.3,1.2,4.4,2.9,6.3,4.7
			c4.5,4,7.3,9,8.5,14.9c1.2,6.2,1.5,12.4,0.3,18.6c-1.8,9.5-7.3,16.3-15.7,21c-5.9,3.2-12.2,5.1-18.8,6
			c-11.4,1.7-22.8,1.4-34.2-0.1c-7.2-1-14.2-3-21-5.5c-0.4-0.1-0.7-0.3-1.4-0.6c1.9-9.1,3.7-18.1,5.6-27.2c3.9,1.2,7.5,2.5,11.2,3.5
			c9,2.6,18.3,4,27.7,3.5c2.8-0.1,5.7-0.7,8.5-1.3c6-1.3,7.1-9.4,3-12.8c-1.5-1.2-3-2.4-4.7-3.2c-4.8-2.2-9.6-4.3-14.5-6.3
			c-5.8-2.3-11.6-4.6-17-7.8c-6.8-4.1-12-9.6-14.5-17.2c-2.9-9-3-18.1,0.4-27c2.3-5.9,6.3-10.5,11.4-14.2c5.7-4,12.1-6.4,19-7.5
			c13.8-2.2,27.6-1.2,41.1,2.1c3.1,0.7,6.1,1.7,9.5,2.6C637,306,635.1,314.6,633.1,323.3z"/>
		<path style="fill:#424242;" d="M351.3,372.4c9.6-25.6,17.7-51.6,24.9-78c11.5,0,22.9,0,34.6,0c-0.2,1-0.4,1.9-0.7,2.7
			c-5.9,19.6-12.3,39-19.6,58.1c-7.3,19.1-15.2,38-24.4,56.3c-0.9,1.7-1.8,2.5-3.8,2.4c-7.7-0.1-15.4-0.1-23,0
			c-1.9,0-2.8-0.6-3.7-2.3c-9.9-20.1-18.6-40.7-26.4-61.7c-6.6-17.5-12.4-35.3-17.8-53.2c-0.2-0.7-0.4-1.5-0.6-2.5
			c11.9,0,23.7,0,35.3,0c3.9,13.1,7.7,26.2,11.8,39.3C342,346.7,346,359.7,351.3,372.4z"/>
		<path style="fill:#424242;" d="M743.2,384.4c1.6,8.9,3.1,17.4,4.7,26c-4.2,1.9-8.3,3-12.5,4.1c-7.1,1.8-14.4,2.1-21.6,2
			c-6.2-0.1-12.3-0.7-18.2-2.7c-13.7-4.6-21.9-14.1-25-28.1c-1.6-7.1-2-14.4-2-21.7c0-32.2,0-64.5,0-96.7c0-0.9,0-1.7,0-2.9
			c11.2-1.8,22.2-3.6,33.5-5.4c0.3,6,0.1,11.8,0.1,17.6c0,5.7,0,11.5,0,17.6c13.6,0.1,27,0,40.4,0.1c0.6,2,0.6,25.5,0.1,28
			c-13.3,0-26.6,0-40.2,0c-0.1,0.9-0.2,1.5-0.2,2.2c0,13-0.1,26.1,0,39.1c0,4.8,0.4,9.5,2,14.2c2.1,6.3,6.6,9.4,13,10.1
			c8,0.8,15.8-0.4,23.4-2.7C741.4,384.9,742.1,384.7,743.2,384.4z"/>
		<path style="fill:#424242;" d="M804.5,294.4c0,39.8,0,79.4,0,119c-1.7,0.6-30.1,0.8-33.2,0.2c-0.4-1.8-0.6-116.2-0.1-119.2
			C782.1,294.4,793.2,294.4,804.5,294.4z"/>
		<path style="fill:#424242;" d="M108.3,294.4c11.1,0,22.1,0,33.3,0c0.1,0.7,0.3,1.3,0.3,2c0,38.5,0,77,0,115.4
			c0,0.5-0.1,1.1-0.1,1.6c-1.8,0.6-30.9,0.7-33.4,0.1C108.3,373.9,108.3,334.3,108.3,294.4z"/>
	</g>
	<g>
		<g>
			<path style="fill:#424242;" d="M605.1,662.9c29.3,37.9,53.4,78.5,73.9,121.9c-25.4,0-50.4,0-75.7,0c-1.5-2.7-3.2-5.6-4.8-8.5
				c-12.5-22.6-25-45.3-39.5-66.8c-7.1-10.6-14.8-20.8-22.2-31.2c-1.3-1.9-2.9-2.5-5.2-2.5c-8.7,0.1-17.5,0.1-26.2,0.1
				c-1,0-2,0-3.5,0c0,36.4,0,72.6,0,108.9c-22.6,0-44.9,0-67.4,0c0-98.1,0-196.1,0-294.6c2.1-0.4,4.3-0.9,6.5-1.3
				c18.5-3.3,37.1-4.9,55.9-5.8c17.4-0.8,34.7-1.1,52,0.4c20.5,1.7,40.5,5.4,59.5,13.8c10,4.4,19.4,10,27.4,17.6
				c10.6,10.1,17.7,22.3,21.4,36.4c4.5,17.1,4.8,34.3,1.6,51.6c-3.8,20.3-14.8,35.9-31.4,47.7c-6,4.3-12.4,7.8-19.2,10.9
				C607.3,661.8,606.4,662.3,605.1,662.9z M501.9,622.1c3.6,0,7,0,10.4,0c13.1,0.1,26.2,0.1,39.2-2.1c7.7-1.3,15.3-3.1,22.3-6.8
				c7.4-4,12.5-9.9,15.2-17.9c2.3-7,2.7-14.2,1.8-21.4c-1.5-11.7-7.3-20.3-18-25.6c-5.3-2.6-10.9-4.4-16.6-5.6
				c-12.7-2.7-25.5-3.1-38.4-2.6c-5.2,0.2-10.5,0.7-15.8,1.1C501.9,568.3,501.9,595,501.9,622.1z"/>
			<path style="fill:#424242;" d="M782,543.3c-30.3,0-60.1,0-90.1,0c0-19.1,0-38.1,0-57c2.7-0.8,243.8-0.9,247.4-0.1
				c0,18.9,0,37.8,0,57.1c-29.9,0-59.6,0-89.8,0c0,80.7,0,161,0,241.5c-22.6,0-44.8,0-67.4,0c-0.1-11.5,0-22.9-0.1-34.4
				c0-11.5,0-23,0-34.5s0-23,0-34.5c0-11.4,0-22.8,0-34.2c0-11.5,0-23,0-34.5s0-23,0-34.5C782,566.8,782,555.3,782,543.3z"/>
			<path style="fill:#424242;" d="M394.4,781.8c-13.9-38.6-27.6-77.3-41.9-115.7c-22.4-60-47.2-119-74.4-176.9
				c-1.2-2.5-2.5-3.5-5.4-3.5c-19,0.1-38,0.1-56.9,0c0,0,56.3,142.8,69.3,180.8l-60.5,0.4l21.1,54.6l55.7-1.1
				c7.4,21.5,14.8,42.9,22.2,64.4h71.8C395,783.8,394.8,782.8,394.4,781.8z"/>
			<circle style="fill:#FF5722;" cx="155.4" cy="741.8" r="47.1"/>
		</g>
	</g>
</g>
<g>
</g>
<g>
</g>
<g>
</g>
<g>
</g>
<g>
</g>
<g>
</g>
<g>
</g>
<g>
</g>
<g>
</g>
<g>
</g>
<g>
</g>
<g>
</g>
<g>
</g>
<g>
</g>
<g>
</g>
</svg>
