<?xml version="1.0" encoding="utf-8"?>
<!-- Generator: Adobe Illustrator 17.0.0, SVG Export Plug-In . SVG Version: 6.00 Build 0)  -->
<!DOCTYPE svg PUBLIC "-//W3C//DTD SVG 1.1//EN" "http://www.w3.org/Graphics/SVG/1.1/DTD/svg11.dtd">
<svg version="1.1" id="Layer_1" xmlns="http://www.w3.org/2000/svg" xmlns:xlink="http://www.w3.org/1999/xlink" x="0px" y="0px"
	 width="32px" height="32px" viewBox="0 0 32 32" style="enable-background:new 0 0 32 32;" xml:space="preserve">
<g id="logo-sq-fav.svg">
	<rect x="0" y="0" style="fill:none;" width="32" height="32"/>
	<g>
		<path style="fill:#424242;" d="M13.9,11.1C13.9,11.2,13.9,11.2,13.9,11.1c0.1,0.3,0.2,0.5,0.5,0.6c0.1,0.1,0.3,0.1,0.4,0.1
			c0.2,0,0.4,0,0.6,0c0.2,0,0.3-0.1,0.5-0.1c0,0,0,0,0,0c0,0.1,0.1,0.6,0.1,0.8c0,0-0.1,0-0.1,0c-0.2,0.1-0.4,0.1-0.5,0.1
			c-0.3,0-0.5,0.1-0.8,0c-0.3,0-0.6-0.1-0.9-0.2c-0.4-0.2-0.6-0.5-0.8-0.9c-0.1-0.5-0.2-1,0-1.4c0.2-0.5,0.5-0.9,1-1.1
			c0.3-0.1,0.6-0.1,0.9-0.1c0.3,0,0.5,0.1,0.8,0.3c0.3,0.2,0.5,0.5,0.6,0.9c0,0.2,0.1,0.3,0.1,0.5c0,0.2,0,0.3,0,0.5
			c0,0,0,0.1,0,0.1C15.5,11.1,14.7,11.1,13.9,11.1z M15.3,10.4c0-0.1,0-0.1,0-0.2c0-0.2-0.1-0.4-0.3-0.5c-0.1-0.1-0.2-0.1-0.4-0.1
			c-0.3,0-0.4,0.1-0.6,0.4c0,0.1-0.1,0.2-0.1,0.3c0,0,0,0,0,0C14.4,10.4,14.8,10.4,15.3,10.4z"/>
		<path style="fill:#424242;" d="M25.6,9.1C25.7,9.1,25.9,9,26,9c0.4-0.1,0.8-0.1,1.1-0.1c0.3,0,0.5,0,0.7,0.1
			c0.4,0.2,0.6,0.5,0.7,0.9c0.1,0.2,0.1,0.4,0.1,0.6c0,0.7,0,1.4,0,2.1c0,0,0,0,0,0.1c-0.1,0-0.2,0-0.3,0c-0.1,0-0.2,0-0.3,0
			c-0.1,0-0.2,0-0.2,0c-0.1,0-0.2,0-0.3,0c0,0,0-0.1,0-0.1c0-0.6,0-1.3,0-1.9c0-0.1,0-0.3,0-0.4c0,0,0-0.1,0-0.1
			c-0.1-0.1-0.2-0.2-0.3-0.3c0,0-0.1,0-0.1,0c-0.2,0-0.3,0-0.5,0c0,0,0,0-0.1,0c0,0.9,0,1.9,0,2.8c-0.3,0-0.7,0-1,0
			C25.6,11.5,25.6,10.3,25.6,9.1z"/>
		<path style="fill:#424242;" d="M6.3,12.6c-0.1,0-1,0-1,0c0-1.2,0-2.3,0-3.5c0,0,0.1,0,0.1,0C5.7,9,6,8.9,6.4,8.9
			c0.2,0,0.5,0,0.7,0c0.2,0,0.4,0,0.5,0.1C8,9.2,8.3,9.5,8.4,9.8c0.1,0.2,0.1,0.5,0.1,0.7c0,0.7,0,1.4,0,2c0,0,0,0,0,0.1
			c-0.1,0-0.9,0-1,0c0,0,0-0.1,0-0.1c0-0.6,0-1.2,0-1.8c0-0.1,0-0.3,0-0.4c0,0,0-0.1,0-0.1C7.3,9.9,7.2,9.8,6.9,9.8
			c-0.2,0-0.3,0-0.5,0c0,0,0,0-0.1,0C6.3,10.8,6.3,11.7,6.3,12.6z"/>
		<path style="fill:#424242;" d="M19.3,9.9c-0.1,0-0.3-0.1-0.4-0.1c-0.2,0-0.4-0.1-0.7,0c0,0-0.1,0-0.1,0c-0.2,0.1-0.2,0.3,0,0.4
			c0.1,0.1,0.2,0.1,0.3,0.1c0.1,0.1,0.3,0.1,0.4,0.2c0.1,0.1,0.3,0.1,0.4,0.2c0.1,0,0.1,0.1,0.2,0.1c0.1,0.1,0.2,0.3,0.3,0.5
			c0,0.2,0,0.4,0,0.6c-0.1,0.3-0.2,0.5-0.5,0.6c-0.2,0.1-0.4,0.2-0.6,0.2c-0.3,0.1-0.7,0-1,0c-0.2,0-0.4-0.1-0.6-0.2c0,0,0,0,0,0
			c0.1-0.3,0.1-0.6,0.2-0.8c0.1,0,0.2,0.1,0.3,0.1c0.3,0.1,0.6,0.1,0.8,0.1c0.1,0,0.2,0,0.3,0c0.2,0,0.2-0.3,0.1-0.4
			c0,0-0.1-0.1-0.1-0.1c-0.1-0.1-0.3-0.1-0.4-0.2c-0.2-0.1-0.4-0.1-0.5-0.2c-0.2-0.1-0.4-0.3-0.4-0.5c-0.1-0.3-0.1-0.6,0-0.8
			c0.1-0.2,0.2-0.3,0.3-0.4C17.6,9,17.8,9,18,8.9c0.4-0.1,0.8,0,1.3,0.1c0.1,0,0.2,0.1,0.3,0.1C19.5,9.3,19.4,9.6,19.3,9.9z"/>
		<path style="fill:#424242;" d="M10.7,11.4c0.3-0.8,0.5-1.6,0.8-2.4c0.4,0,0.7,0,1.1,0c0,0,0,0.1,0,0.1c-0.2,0.6-0.4,1.2-0.6,1.8
			c-0.2,0.6-0.5,1.2-0.7,1.7c0,0.1-0.1,0.1-0.1,0.1c-0.2,0-0.5,0-0.7,0c-0.1,0-0.1,0-0.1-0.1c-0.3-0.6-0.6-1.2-0.8-1.9
			c-0.2-0.5-0.4-1.1-0.5-1.6c0,0,0,0,0-0.1C9.2,9,9.6,9,10,9c0.1,0.4,0.2,0.8,0.4,1.2C10.4,10.6,10.6,11,10.7,11.4z"/>
		<path style="fill:#424242;" d="M22.7,11.7c0,0.3,0.1,0.5,0.1,0.8c-0.1,0.1-0.3,0.1-0.4,0.1c-0.2,0.1-0.4,0.1-0.7,0.1
			c-0.2,0-0.4,0-0.6-0.1c-0.4-0.1-0.7-0.4-0.8-0.9c0-0.2-0.1-0.4-0.1-0.7c0-1,0-2,0-3c0,0,0-0.1,0-0.1c0.3-0.1,0.7-0.1,1-0.2
			c0,0.2,0,0.4,0,0.5c0,0.2,0,0.4,0,0.5c0.4,0,0.8,0,1.2,0c0,0.1,0,0.8,0,0.9c-0.4,0-0.8,0-1.2,0c0,0,0,0,0,0.1c0,0.4,0,0.8,0,1.2
			c0,0.1,0,0.3,0.1,0.4c0.1,0.2,0.2,0.3,0.4,0.3C22.1,11.9,22.4,11.8,22.7,11.7C22.6,11.8,22.7,11.7,22.7,11.7z"/>
		<path style="fill:#424242;" d="M24.6,9c0,1.2,0,2.4,0,3.6c-0.1,0-0.9,0-1,0c0-0.1,0-3.5,0-3.6C23.9,9,24.2,9,24.6,9z"/>
		<path style="fill:#424242;" d="M3.3,9c0.3,0,0.7,0,1,0c0,0,0,0,0,0.1c0,1.2,0,2.3,0,3.5c0,0,0,0,0,0c-0.1,0-0.9,0-1,0
			C3.3,11.4,3.3,10.2,3.3,9z"/>
	</g>
	<g>
		<g>
			<path style="fill:#424242;" d="M18.5,20.2c0.9,1.2,1.6,2.4,2.3,3.7c-0.8,0-1.5,0-2.3,0c0-0.1-0.1-0.2-0.1-0.3
				c-0.4-0.7-0.8-1.4-1.2-2c-0.2-0.3-0.5-0.6-0.7-1c0-0.1-0.1-0.1-0.2-0.1c-0.3,0-0.5,0-0.8,0c0,0-0.1,0-0.1,0c0,1.1,0,2.2,0,3.3
				c-0.7,0-1.4,0-2.1,0c0-3,0-6,0-9c0.1,0,0.1,0,0.2,0c0.6-0.1,1.1-0.1,1.7-0.2c0.5,0,1.1,0,1.6,0c0.6,0.1,1.2,0.2,1.8,0.4
				c0.3,0.1,0.6,0.3,0.8,0.5c0.3,0.3,0.5,0.7,0.7,1.1c0.1,0.5,0.1,1,0,1.6c-0.1,0.6-0.5,1.1-1,1.5C19,20,18.8,20.1,18.5,20.2
				C18.5,20.2,18.5,20.2,18.5,20.2z M15.3,19c0.1,0,0.2,0,0.3,0c0.4,0,0.8,0,1.2-0.1c0.2,0,0.5-0.1,0.7-0.2c0.2-0.1,0.4-0.3,0.5-0.5
				c0.1-0.2,0.1-0.4,0.1-0.7c0-0.4-0.2-0.6-0.6-0.8c-0.2-0.1-0.3-0.1-0.5-0.2c-0.4-0.1-0.8-0.1-1.2-0.1c-0.2,0-0.3,0-0.5,0
				C15.3,17.4,15.3,18.2,15.3,19z"/>
			<path style="fill:#424242;" d="M23.9,16.6c-0.9,0-1.8,0-2.8,0c0-0.6,0-1.2,0-1.7c0.1,0,7.4,0,7.6,0c0,0.6,0,1.2,0,1.7
				c-0.9,0-1.8,0-2.7,0c0,2.5,0,4.9,0,7.4c-0.7,0-1.4,0-2.1,0c0-0.4,0-0.7,0-1c0-0.4,0-0.7,0-1.1s0-0.7,0-1.1c0-0.3,0-0.7,0-1
				c0-0.4,0-0.7,0-1.1c0-0.4,0-0.7,0-1.1C23.9,17.3,23.9,17,23.9,16.6z"/>
			<path style="fill:#424242;" d="M12,23.9c-0.4-1.2-0.8-2.4-1.3-3.5c-0.7-1.8-1.4-3.6-2.3-5.4c0-0.1-0.1-0.1-0.2-0.1
				c-0.6,0-1.2,0-1.7,0c0,0,1.7,4.4,2.1,5.5l-1.8,0L7.5,22l1.7,0c0.2,0.7,0.5,1.3,0.7,2L12,23.9C12.1,23.9,12.1,23.9,12,23.9z"/>
			<circle style="fill:#FF5722;" cx="4.7" cy="22.7" r="1.4"/>
		</g>
	</g>
</g>
<g>
</g>
<g>
</g>
<g>
</g>
<g>
</g>
<g>
</g>
<g>
</g>
<g>
</g>
<g>
</g>
<g>
</g>
<g>
</g>
<g>
</g>
<g>
</g>
<g>
</g>
<g>
</g>
<g>
</g>
</svg>
