<?xml version="1.0" encoding="utf-8"?>
<!-- Generator: Adobe Illustrator 17.0.0, SVG Export Plug-In . SVG Version: 6.00 Build 0)  -->
<!DOCTYPE svg PUBLIC "-//W3C//DTD SVG 1.1//EN" "http://www.w3.org/Graphics/SVG/1.1/DTD/svg11.dtd">
<svg version="1.1" id="Layer_1" xmlns="http://www.w3.org/2000/svg" xmlns:xlink="http://www.w3.org/1999/xlink" x="0px" y="0px"
	 width="115px" height="115px" viewBox="0 0 115 115" style="enable-background:new 0 0 115 115;" xml:space="preserve">
<g id="logo-sq-ico.svg">
	<rect x="0" y="0" style="fill:none;" width="115" height="115"/>
	<g>
		<path style="fill:#424242;" d="M50,40.1c0,0.1,0,0.2,0,0.3c0.2,0.9,0.8,1.5,1.6,1.9c0.5,0.2,1.1,0.3,1.6,0.3c0.7,0,1.5,0,2.2-0.2
			c0.6-0.1,1.1-0.2,1.6-0.4c0,0,0.1,0,0.1,0c0.1,0.2,0.4,2,0.5,3c-0.1,0.1-0.3,0.1-0.4,0.2c-0.6,0.2-1.3,0.4-2,0.5
			c-0.9,0.1-1.8,0.2-2.8,0.2c-1.1,0-2.2-0.3-3.3-0.8c-1.4-0.7-2.3-1.9-2.8-3.4c-0.5-1.7-0.5-3.4,0-5.2c0.6-1.8,1.7-3.2,3.5-4
			c1-0.4,2.1-0.5,3.2-0.4c1,0.1,1.9,0.4,2.8,0.9c1.2,0.8,1.9,1.9,2.2,3.2c0.2,0.6,0.2,1.2,0.3,1.8c0,0.6,0,1.2,0,1.8
			c0,0.1,0,0.2,0,0.4C55.6,40.1,52.8,40.1,50,40.1z M54.9,37.5c0-0.2,0-0.4-0.1-0.6c-0.1-0.7-0.5-1.3-1.2-1.6
			C53.3,35,52.8,35,52.4,35c-0.9,0-1.6,0.4-2,1.3c-0.2,0.3-0.2,0.7-0.4,1.1c0,0,0,0.1,0,0.2C51.6,37.5,53.2,37.5,54.9,37.5z"/>
		<path style="fill:#424242;" d="M91.8,32.7c0.6-0.1,1.1-0.3,1.7-0.4c1.4-0.3,2.7-0.4,4.1-0.3c0.9,0,1.8,0.1,2.6,0.5
			c1.4,0.6,2.2,1.6,2.6,3.1c0.2,0.7,0.3,1.4,0.3,2.2c0,2.5,0,4.9,0,7.4c0,0.1,0,0.2,0,0.3c-0.3,0-0.6,0-0.9,0c-0.3,0-0.6,0-0.9,0
			c-0.3,0-0.6,0-0.9,0c-0.3,0-0.6,0-0.9,0c0-0.1,0-0.2,0-0.3c0-2.3,0-4.6,0-6.9c0-0.5,0-1.1-0.2-1.6c0-0.1-0.1-0.3-0.1-0.4
			c-0.2-0.5-0.6-0.8-1.2-1c-0.2,0-0.3-0.1-0.5-0.1c-0.5,0-1.1,0-1.6,0.1c-0.1,0-0.2,0-0.3,0.1c0,3.4,0,6.7,0,10.1
			c-1.3,0-2.5,0-3.7,0C91.8,41.2,91.8,37,91.8,32.7z"/>
		<path style="fill:#424242;" d="M22.8,45.4c-0.3,0.1-3.5,0.1-3.7,0c0-4.2,0-8.4,0-12.6c0.1,0,0.2-0.1,0.3-0.1
			c1.2-0.3,2.3-0.5,3.5-0.6c0.9-0.1,1.8-0.1,2.7,0c0.7,0,1.3,0.2,1.9,0.4c1.3,0.5,2.1,1.5,2.5,2.9c0.2,0.8,0.3,1.6,0.3,2.5
			c0,2.4,0,4.9,0,7.3c0,0.1,0,0.2,0,0.2c-0.2,0.1-3.4,0.1-3.7,0c0-0.1,0-0.2,0-0.3c0-2.2,0-4.4,0-6.6c0-0.5,0-1.1-0.1-1.6
			c0-0.1-0.1-0.3-0.1-0.4c-0.2-0.7-0.6-1.2-1.7-1.3c-0.6,0-1.2,0-1.8,0.1c-0.1,0-0.2,0-0.3,0.1C22.8,38.6,22.8,42,22.8,45.4z"/>
		<path style="fill:#424242;" d="M69.5,35.5c-0.5-0.1-1-0.3-1.5-0.4c-0.8-0.2-1.6-0.2-2.4-0.1c-0.2,0-0.3,0.1-0.5,0.2
			c-0.6,0.3-0.6,1-0.1,1.4c0.3,0.2,0.6,0.4,0.9,0.5c0.5,0.2,1,0.4,1.5,0.6c0.5,0.2,1.1,0.5,1.6,0.8c0.3,0.1,0.5,0.3,0.7,0.5
			c0.5,0.4,0.8,1,0.9,1.6c0.1,0.7,0.2,1.4,0,2c-0.2,1-0.8,1.8-1.7,2.3c-0.6,0.4-1.3,0.6-2.1,0.7c-1.2,0.2-2.5,0.2-3.8,0
			c-0.8-0.1-1.6-0.3-2.3-0.6c0,0-0.1,0-0.1-0.1c0.2-1,0.4-2,0.6-3c0.4,0.1,0.8,0.3,1.2,0.4c1,0.3,2,0.4,3,0.4c0.3,0,0.6-0.1,0.9-0.1
			c0.7-0.1,0.8-1,0.3-1.4c-0.2-0.1-0.3-0.3-0.5-0.4c-0.5-0.2-1.1-0.5-1.6-0.7c-0.6-0.3-1.3-0.5-1.9-0.9c-0.7-0.4-1.3-1.1-1.6-1.9
			c-0.3-1-0.3-2,0-3c0.2-0.6,0.7-1.2,1.3-1.6c0.6-0.4,1.3-0.7,2.1-0.8c1.5-0.2,3-0.1,4.5,0.2c0.3,0.1,0.7,0.2,1,0.3
			C69.9,33.6,69.7,34.5,69.5,35.5z"/>
		<path style="fill:#424242;" d="M38.6,40.9c1.1-2.8,1.9-5.7,2.7-8.6c1.3,0,2.5,0,3.8,0c0,0.1,0,0.2-0.1,0.3
			c-0.6,2.1-1.4,4.3-2.2,6.4c-0.8,2.1-1.7,4.2-2.7,6.2c-0.1,0.2-0.2,0.3-0.4,0.3c-0.8,0-1.7,0-2.5,0c-0.2,0-0.3-0.1-0.4-0.2
			c-1.1-2.2-2-4.5-2.9-6.8c-0.7-1.9-1.4-3.9-2-5.8c0-0.1,0-0.2-0.1-0.3c1.3,0,2.6,0,3.9,0c0.4,1.4,0.8,2.9,1.3,4.3
			C37.5,38,38,39.5,38.6,40.9z"/>
		<path style="fill:#424242;" d="M81.5,42.2c0.2,1,0.3,1.9,0.5,2.9c-0.5,0.2-0.9,0.3-1.4,0.4c-0.8,0.2-1.6,0.2-2.4,0.2
			c-0.7,0-1.3-0.1-2-0.3c-1.5-0.5-2.4-1.5-2.7-3.1c-0.2-0.8-0.2-1.6-0.2-2.4c0-3.5,0-7.1,0-10.6c0-0.1,0-0.2,0-0.3
			c1.2-0.2,2.4-0.4,3.7-0.6c0,0.7,0,1.3,0,1.9c0,0.6,0,1.3,0,1.9c1.5,0,3,0,4.4,0c0.1,0.2,0.1,2.8,0,3.1c-1.5,0-2.9,0-4.4,0
			c0,0.1,0,0.2,0,0.2c0,1.4,0,2.9,0,4.3c0,0.5,0,1,0.2,1.6c0.2,0.7,0.7,1,1.4,1.1c0.9,0.1,1.7,0,2.6-0.3
			C81.4,42.2,81.4,42.2,81.5,42.2z"/>
		<path style="fill:#424242;" d="M88.3,32.3c0,4.4,0,8.7,0,13.1c-0.2,0.1-3.3,0.1-3.6,0c0-0.2-0.1-12.8,0-13.1
			C85.8,32.3,87,32.3,88.3,32.3z"/>
		<path style="fill:#424242;" d="M11.9,32.3c1.2,0,2.4,0,3.7,0c0,0.1,0,0.1,0,0.2c0,4.2,0,8.4,0,12.7c0,0.1,0,0.1,0,0.2
			c-0.2,0.1-3.4,0.1-3.7,0C11.9,41,11.9,36.7,11.9,32.3z"/>
	</g>
	<g>
		<g>
			<path style="fill:#424242;" d="M66.4,72.7c3.2,4.2,5.9,8.6,8.1,13.4c-2.8,0-5.5,0-8.3,0c-0.2-0.3-0.3-0.6-0.5-0.9
				c-1.4-2.5-2.7-5-4.3-7.3c-0.8-1.2-1.6-2.3-2.4-3.4c-0.1-0.2-0.3-0.3-0.6-0.3c-1,0-1.9,0-2.9,0c-0.1,0-0.2,0-0.4,0c0,4,0,8,0,12
				c-2.5,0-4.9,0-7.4,0c0-10.8,0-21.5,0-32.3c0.2,0,0.5-0.1,0.7-0.1c2-0.4,4.1-0.5,6.1-0.6c1.9-0.1,3.8-0.1,5.7,0
				c2.2,0.2,4.4,0.6,6.5,1.5c1.1,0.5,2.1,1.1,3,1.9c1.2,1.1,1.9,2.4,2.3,4c0.5,1.9,0.5,3.8,0.2,5.7c-0.4,2.2-1.6,3.9-3.4,5.2
				c-0.7,0.5-1.4,0.9-2.1,1.2C66.6,72.6,66.5,72.7,66.4,72.7z M55.1,68.3c0.4,0,0.8,0,1.1,0c1.4,0,2.9,0,4.3-0.2
				c0.8-0.1,1.7-0.3,2.4-0.7c0.8-0.4,1.4-1.1,1.7-2c0.3-0.8,0.3-1.6,0.2-2.4c-0.2-1.3-0.8-2.2-2-2.8c-0.6-0.3-1.2-0.5-1.8-0.6
				c-1.4-0.3-2.8-0.3-4.2-0.3c-0.6,0-1.1,0.1-1.7,0.1C55.1,62.4,55.1,65.3,55.1,68.3z"/>
			<path style="fill:#424242;" d="M85.8,59.6c-3.3,0-6.6,0-9.9,0c0-2.1,0-4.2,0-6.2c0.3-0.1,26.8-0.1,27.1,0c0,2.1,0,4.1,0,6.3
				c-3.3,0-6.5,0-9.9,0c0,8.9,0,17.7,0,26.5c-2.5,0-4.9,0-7.4,0c0-1.3,0-2.5,0-3.8c0-1.3,0-2.5,0-3.8c0-1.3,0-2.5,0-3.8
				c0-1.2,0-2.5,0-3.7c0-1.3,0-2.5,0-3.8c0-1.3,0-2.5,0-3.8C85.8,62.2,85.8,60.9,85.8,59.6z"/>
			<path style="fill:#424242;" d="M43.3,85.8c-1.5-4.2-3-8.5-4.6-12.7c-2.5-6.6-5.2-13.1-8.2-19.4c-0.1-0.3-0.3-0.4-0.6-0.4
				c-2.1,0-4.2,0-6.2,0c0,0,6.2,15.7,7.6,19.8l-6.6,0l2.3,6l6.1-0.1c0.8,2.4,1.6,4.7,2.4,7.1h7.9C43.3,86,43.3,85.9,43.3,85.8z"/>
			<circle style="fill:#FF5722;" cx="17.1" cy="81.4" r="5.2"/>
		</g>
	</g>
</g>
<g>
</g>
<g>
</g>
<g>
</g>
<g>
</g>
<g>
</g>
<g>
</g>
<g>
</g>
<g>
</g>
<g>
</g>
<g>
</g>
<g>
</g>
<g>
</g>
<g>
</g>
<g>
</g>
<g>
</g>
</svg>
