<?xml version="1.0" encoding="utf-8"?>
<!-- Generator: Adobe Illustrator 17.0.0, SVG Export Plug-In . SVG Version: 6.00 Build 0)  -->
<!DOCTYPE svg PUBLIC "-//W3C//DTD SVG 1.1//EN" "http://www.w3.org/Graphics/SVG/1.1/DTD/svg11.dtd">
<svg version="1.1" id="Layer_1" xmlns="http://www.w3.org/2000/svg" xmlns:xlink="http://www.w3.org/1999/xlink" x="0px" y="0px"
	 width="1752.9px" height="396px" viewBox="0 0 1752.9 396" style="enable-background:new 0 0 1752.9 396;" xml:space="preserve">
<g id="logo-rec.svg">
	<rect x="0" style="fill:none;" width="1752.9" height="396"/>
	<g>
		<path style="fill:#424242;" d="M484,259.6c0.1,1.1,0.2,1.9,0.3,2.6c1.9,8.4,7.3,13.8,14.9,17.2c4.7,2,9.6,2.8,14.7,3.1
			c6.7,0.4,13.4-0.3,20-1.4c5.1-0.9,10.2-2,15-4c0.2-0.1,0.5-0.1,0.7-0.1c0.8,1.7,3.8,18.6,4.8,27.1c-1.1,0.5-2.4,1-3.6,1.5
			c-5.8,2.1-11.8,3.3-17.9,4.3c-8.3,1.3-16.7,1.9-25.1,1.5c-10.4-0.4-20.4-2.6-29.7-7.5c-12.7-6.8-21.2-17.1-25.4-30.8
			c-4.7-15.6-5-31.4-0.1-47c5.2-16.7,15.6-29.2,32-36.1c9.3-3.9,19-4.9,28.9-4c9,0.8,17.6,3.3,25.2,8.4
			c10.6,7.1,16.9,17.2,20.1,29.4c1.4,5.3,2.1,10.8,2.5,16.3c0.4,5.4,0.1,10.9-0.2,16.3c0,1-0.3,2-0.4,3.3
			C535.2,259.6,509.8,259.6,484,259.6z M529.2,236.4c-0.3-2-0.4-3.8-0.8-5.6c-1.3-6.5-4.6-11.7-10.5-15c-3.8-2.1-7.8-2.6-12.1-2.4
			c-8.3,0.3-14.6,4-18.3,11.5c-1.5,3.1-2.3,6.6-3.3,10c-0.1,0.4,0,0.9,0,1.6C499.1,236.4,513.9,236.4,529.2,236.4z"/>
		<path style="fill:#424242;" d="M865.5,192.5c5.3-1.1,10.4-2.3,15.6-3.3c12.4-2.3,24.8-3.4,37.4-3.2c8.2,0.1,16.2,1.1,23.9,4.2
			c12.7,5.2,20.1,14.8,23.4,27.9c1.7,6.5,2.5,13.2,2.5,19.9c0,22.6,0,45.1,0,67.7c0,0.7,0,1.4,0,2.5c-2.8,0.4-5.6,0.1-8.4,0.2
			c-2.8,0-5.6,0-8.4,0c-2.7,0-5.4,0-8.2,0c-2.8,0-5.6,0-8.6,0c-0.1-1.2-0.2-2.2-0.2-3.2c0-20.9,0-41.7,0-62.6
			c0-4.9-0.4-9.7-1.6-14.5c-0.3-1.3-0.8-2.6-1.3-3.8c-1.9-4.9-5.6-7.6-10.6-8.8c-1.5-0.4-3.2-0.7-4.7-0.6c-4.9,0.1-9.9,0.4-14.8,0.7
			c-0.7,0-1.4,0.3-2.4,0.5c0,30.7,0,61.3,0,92.3c-11.4,0-22.5,0-33.6,0C865.5,269.6,865.5,231.3,865.5,192.5z"/>
		<path style="fill:#424242;" d="M236.4,307.9c-2.5,0.6-31.7,0.6-33.7,0c0-38.2,0-76.5,0-115.1c0.8-0.2,1.6-0.6,2.6-0.8
			c10.6-2.6,21.4-4.5,32.3-5.4c8.1-0.7,16.3-0.9,24.4-0.3c6.1,0.4,12,1.6,17.7,4c12,4.9,19.4,14,22.9,26.3c2.1,7.3,3,14.9,3,22.5
			c0,22.2,0,44.5,0,66.7c0,0.7-0.1,1.4-0.1,2.1c-1.9,0.6-31,0.7-33.5,0c0-1,0-2,0-3c0-20.1,0-40.2,0-60.2c0-4.9-0.2-9.7-1.3-14.5
			c-0.3-1.2-0.6-2.3-0.9-3.5c-1.8-6.5-5.8-11.2-15.1-11.7c-5.3-0.3-10.7,0.3-16,0.5c-0.7,0-1.4,0.3-2.3,0.5
			C236.4,246.6,236.4,277.2,236.4,307.9z"/>
		<path style="fill:#424242;" d="M661.9,217.7c-4.8-1.3-9.2-2.6-13.6-3.5c-7.3-1.6-14.7-2-22.1-0.7c-1.5,0.3-3.1,0.8-4.5,1.6
			c-5.1,2.7-5.7,9.6-1.1,13c2.6,1.9,5.6,3.4,8.6,4.7c4.5,2,9.1,3.4,13.6,5.4c4.9,2.2,9.7,4.5,14.4,7.1c2.3,1.2,4.4,2.9,6.3,4.7
			c4.5,4,7.3,9,8.5,14.9c1.2,6.2,1.5,12.4,0.3,18.6c-1.8,9.5-7.3,16.3-15.7,21c-5.9,3.2-12.2,5.1-18.8,6
			c-11.4,1.7-22.8,1.4-34.2-0.1c-7.2-1-14.2-3-21-5.5c-0.4-0.1-0.7-0.3-1.4-0.6c1.9-9.1,3.7-18.1,5.6-27.2c3.9,1.2,7.5,2.5,11.2,3.5
			c9,2.6,18.3,4,27.7,3.5c2.8-0.1,5.7-0.7,8.5-1.3c6-1.3,7.1-9.4,3-12.8c-1.5-1.2-3-2.4-4.7-3.2c-4.8-2.2-9.6-4.3-14.5-6.3
			c-5.8-2.3-11.6-4.6-17-7.8c-6.8-4.1-12-9.6-14.5-17.2c-2.9-9-3-18.1,0.4-27c2.3-5.9,6.3-10.5,11.4-14.2c5.7-4,12.1-6.4,19-7.5
			c13.8-2.2,27.6-1.2,41.1,2.1c3.1,0.7,6.1,1.7,9.5,2.6C665.7,200.4,663.8,209,661.9,217.7z"/>
		<path style="fill:#424242;" d="M380.1,266.8c9.6-25.6,17.7-51.6,24.9-78c11.5,0,22.9,0,34.6,0c-0.2,1-0.4,1.9-0.7,2.7
			c-5.9,19.6-12.3,39-19.6,58.1c-7.3,19.1-15.2,38-24.4,56.3c-0.9,1.7-1.8,2.5-3.8,2.4c-7.7-0.1-15.4-0.1-23,0
			c-1.9,0-2.8-0.6-3.7-2.3c-9.9-20.1-18.6-40.7-26.4-61.7c-6.6-17.5-12.4-35.3-17.8-53.2c-0.2-0.7-0.4-1.5-0.6-2.5
			c11.9,0,23.7,0,35.3,0c3.9,13.1,7.7,26.2,11.8,39.3C370.7,241.1,374.7,254.1,380.1,266.8z"/>
		<path style="fill:#424242;" d="M771.9,278.8c1.6,8.9,3.1,17.4,4.7,26c-4.2,1.9-8.3,3-12.5,4.1c-7.1,1.8-14.4,2.1-21.6,2
			c-6.2-0.1-12.3-0.7-18.2-2.7c-13.7-4.6-21.9-14.1-25-28.1c-1.6-7.1-2-14.4-2-21.7c0-32.2,0-64.5,0-96.7c0-0.9,0-1.7,0-2.9
			c11.2-1.8,22.2-3.6,33.5-5.4c0.3,6,0.1,11.8,0.1,17.6c0,5.7,0,11.5,0,17.6c13.6,0.1,27,0,40.4,0.1c0.6,2,0.6,25.5,0.1,28
			c-13.3,0-26.6,0-40.2,0c-0.1,0.9-0.2,1.5-0.2,2.2c0,13-0.1,26.1,0,39.1c0,4.8,0.4,9.5,2,14.2c2.1,6.3,6.6,9.4,13,10.1
			c8,0.8,15.8-0.4,23.4-2.7C770.1,279.3,770.8,279.1,771.9,278.8z"/>
		<path style="fill:#424242;" d="M833.2,188.8c0,39.8,0,79.4,0,119c-1.7,0.6-30.1,0.8-33.2,0.2c-0.4-1.8-0.6-116.2-0.1-119.2
			C810.9,188.8,821.9,188.8,833.2,188.8z"/>
		<path style="fill:#424242;" d="M137,188.8c11.1,0,22.1,0,33.3,0c0.1,0.7,0.3,1.3,0.3,2c0,38.5,0,77,0,115.4c0,0.5-0.1,1.1-0.1,1.6
			c-1.8,0.6-30.9,0.7-33.4,0.1C137,268.3,137,228.7,137,188.8z"/>
	</g>
	<g>
		<g>
			<path style="fill:#424242;" d="M1368.7,218c21.7,28.1,39.5,58.1,54.6,90.1c-18.8,0-37.3,0-56,0c-1.1-2-2.4-4.2-3.5-6.3
				c-9.3-16.7-18.5-33.5-29.2-49.4c-5.3-7.8-11-15.4-16.4-23.1c-1-1.4-2.2-1.9-3.9-1.8c-6.5,0.1-12.9,0-19.4,0c-0.8,0-1.5,0-2.6,0
				c0,26.9,0,53.7,0,80.6c-16.8,0-33.2,0-49.8,0c0-72.5,0-145.1,0-217.9c1.5-0.3,3.2-0.7,4.8-0.9c13.7-2.4,27.5-3.6,41.3-4.3
				c12.8-0.6,25.7-0.8,38.5,0.3c15.1,1.3,30,4,44,10.2c7.4,3.3,14.3,7.4,20.3,13c7.9,7.4,13.1,16.5,15.8,26.9
				c3.3,12.6,3.6,25.4,1.2,38.2c-2.8,15-10.9,26.5-23.2,35.3c-4.4,3.2-9.2,5.8-14.2,8C1370.3,217.2,1369.7,217.6,1368.7,218z
				 M1292.4,187.8c2.6,0,5.2,0,7.7,0c9.7,0.1,19.4,0.1,29-1.5c5.7-0.9,11.3-2.3,16.5-5c5.5-2.9,9.3-7.3,11.2-13.3
				c1.7-5.2,2-10.5,1.3-15.9c-1.1-8.6-5.4-15-13.3-18.9c-3.9-1.9-8-3.2-12.3-4.1c-9.4-2-18.9-2.3-28.4-1.9
				c-3.9,0.1-7.7,0.5-11.7,0.8C1292.4,148,1292.4,167.8,1292.4,187.8z"/>
			<path style="fill:#424242;" d="M1499.6,129.6c-22.4,0-44.4,0-66.6,0c0-14.2,0-28.1,0-42.1c2-0.6,180.3-0.6,183-0.1
				c0,14,0,28,0,42.2c-22.1,0-44.1,0-66.4,0c0,59.7,0,119.1,0,178.6c-16.7,0-33.1,0-49.9,0c-0.1-8.5,0-17,0-25.4c0-8.5,0-17,0-25.5
				c0-8.5,0-17,0-25.5c0-8.4,0-16.8,0-25.3c0-8.5,0-17,0-25.5s0-17,0-25.5C1499.6,146.9,1499.6,138.4,1499.6,129.6z"/>
			<path style="fill:#424242;" d="M1212.9,306c-10.3-28.5-20.4-57.1-31-85.6c-16.5-44.4-34.9-88-55.1-130.8c-0.9-1.9-1.8-2.6-4-2.6
				c-14,0.1-28.1,0.1-42.1,0c0,0,41.7,105.6,51.3,133.7l-44.8,0.3l15.6,40.4l41.2-0.8c5.5,15.9,10.9,31.7,16.4,47.6h53.1
				C1213.3,307.4,1213.2,306.7,1212.9,306z"/>
			<circle style="fill:#FF5722;" cx="1036.1" cy="276.4" r="34.8"/>
		</g>
	</g>
</g>
<g>
</g>
<g>
</g>
<g>
</g>
<g>
</g>
<g>
</g>
<g>
</g>
<g>
</g>
<g>
</g>
<g>
</g>
<g>
</g>
<g>
</g>
<g>
</g>
<g>
</g>
<g>
</g>
<g>
</g>
</svg>
