<svg xmlns="http://www.w3.org/2000/svg" viewBox="0 0 450 69.1">
  <path fill="none" d="M0 .8h450V69H0z"/>
  <path fill="#424242" d="M105.6 53.3c0 .3 0 .6.1.8.6 2.6 2.2 4.2 4.5 5.2 1.4.6 2.9.8 4.5.9 2.1.1 4.1-.1 6.1-.4 1.6-.3 3.1-.6 4.6-1.2h.2c.3.5 1.2 5.7 1.4 8.2-.3.1-.7.3-1.1.5-1.8.6-3.6 1-5.4 1.3-2.5.4-5.1.6-7.6.5-3.2-.1-6.2-.8-9-2.3-3.9-2.1-6.5-5.2-7.7-9.4-1.4-4.8-1.5-9.6 0-14.3 1.6-5.1 4.7-8.9 9.7-11 2.8-1.2 5.8-1.5 8.8-1.2 2.7.2 5.3 1 7.7 2.6 3.2 2.2 5.2 5.2 6.1 8.9.4 1.6.6 3.3.8 5 .1 1.7 0 3.3-.1 5 0 .3-.1.6-.1 1-7.9-.1-15.7-.1-23.5-.1zm13.7-7.1c-.1-.6-.1-1.2-.2-1.7-.4-2-1.4-3.6-3.2-4.6-1.1-.6-2.4-.8-3.7-.7-2.5.1-4.4 1.2-5.6 3.5-.5.9-.7 2-1 3v.5h13.7zm102.4-13.3c1.6-.3 3.2-.7 4.7-1 3.8-.7 7.6-1 11.4-1 2.5 0 4.9.3 7.3 1.3 3.9 1.6 6.1 4.5 7.1 8.5.5 2 .8 4 .8 6.1v21.3c-.9.1-1.7 0-2.5.1h-7.7c0-.4-.1-.7-.1-1V48.1c0-1.5-.1-3-.5-4.4-.1-.4-.2-.8-.4-1.2-.6-1.5-1.7-2.3-3.2-2.7-.5-.1-1-.2-1.4-.2-1.5 0-3 .1-4.5.2-.2 0-.4.1-.7.2v28.1h-10.2c-.1-11.8-.1-23.4-.1-35.2zM30.3 68c-.8.2-9.6.2-10.3 0V33c.2-.1.5-.2.8-.2 3.2-.8 6.5-1.4 9.8-1.6 2.5-.2 5-.3 7.4-.1 1.8.1 3.7.5 5.4 1.2 3.7 1.5 5.9 4.3 7 8 .6 2.2.9 4.5.9 6.8V68c-.6.2-9.4.2-10.2 0V48.8c0-1.5-.1-3-.4-4.4-.1-.4-.2-.7-.3-1.1-.6-2-1.8-3.4-4.6-3.6-1.6-.1-3.3.1-4.9.2-.2 0-.4.1-.7.2.1 9.2.1 18.5.1 27.9zm129.4-27.5c-1.5-.4-2.8-.8-4.1-1.1-2.2-.5-4.5-.6-6.7-.2-.5.1-.9.2-1.4.5-1.5.8-1.7 2.9-.3 4 .8.6 1.7 1 2.6 1.4 1.4.6 2.8 1 4.1 1.6 1.5.7 2.9 1.4 4.4 2.2.7.4 1.3.9 1.9 1.4 1.4 1.2 2.2 2.7 2.6 4.5.4 1.9.5 3.8.1 5.7-.5 2.9-2.2 5-4.8 6.4-1.8 1-3.7 1.5-5.7 1.8-3.5.5-6.9.4-10.4 0-2.2-.3-4.3-.9-6.4-1.7-.1 0-.2-.1-.4-.2.6-2.8 1.1-5.5 1.7-8.3 1.2.4 2.3.8 3.4 1.1 2.8.8 5.6 1.2 8.4 1.1.9 0 1.7-.2 2.6-.4 1.8-.4 2.1-2.8.9-3.9-.4-.4-.9-.7-1.4-1-1.5-.7-2.9-1.3-4.4-1.9-1.8-.7-3.5-1.4-5.2-2.4-2.1-1.2-3.7-2.9-4.4-5.2-.9-2.7-.9-5.5.1-8.2.7-1.8 1.9-3.2 3.5-4.3 1.7-1.2 3.7-2 5.8-2.3 4.2-.7 8.4-.4 12.5.7.9.2 1.9.5 2.9.8-.7 2.7-1.3 5.3-1.9 7.9zM74 55.5c2.9-7.8 5.4-15.7 7.6-23.7h10.5c-.1.3-.1.6-.2.8-1.8 6-3.8 11.9-6 17.7-2.2 5.8-4.6 11.6-7.4 17.1-.3.5-.5.7-1.2.7h-7c-.6 0-.9-.2-1.1-.7-3-6.1-5.6-12.4-8-18.8-2-5.3-3.8-10.7-5.4-16.2-.1-.2-.1-.5-.2-.7h10.8l3.6 12c1.1 4 2.3 7.9 4 11.8zm119.2 3.6c.5 2.7 1 5.3 1.4 7.9-1.3.6-2.5.9-3.8 1.2-2.2.6-4.4.6-6.6.6-1.9 0-3.7-.2-5.5-.8-4.2-1.4-6.7-4.3-7.6-8.6-.5-2.2-.6-4.4-.6-6.6V22.5c3.4-.5 6.7-1.1 10.2-1.6.1 1.8 0 3.6 0 5.4v5.3H193c.2.6.2 7.8 0 8.5h-12.2c0 .3-.1.5-.1.7v11.9c0 1.5.1 2.9.6 4.3.7 1.9 2 2.9 3.9 3.1 2.4.3 4.8-.1 7.1-.8.3 0 .6-.1.9-.2zm18.7-27.4v36.2c-.5.2-9.2.2-10.1.1-.1-.5-.2-35.4 0-36.3h10.1zM0 31.7h10.1c0 .2.1.4.1.6v35.6c-.6.2-9.4.3-10.2.1V31.7zm374.8 8.9c6.6 8.5 12 17.7 16.6 27.4h-17c-.3-.6-.7-1.3-1.1-1.9-2.8-5.1-5.6-10.2-8.9-15-1.6-2.4-3.3-4.7-5-7-.3-.4-.7-.6-1.2-.6h-6.7V68h-15.2V1.7l1.5-.3C342 .7 346.2.3 350.4.1c3.9-.2 7.8-.2 11.7.1 4.6.4 9.1 1.2 13.4 3.1 2.3 1 4.4 2.3 6.2 4 2.4 2.3 4 5 4.8 8.2 1 3.8 1.1 7.7.4 11.6-.8 4.6-3.3 8.1-7.1 10.7-1.4 1-2.8 1.8-4.3 2.4-.2.2-.4.3-.7.4zm-23.2-9.2h2.3c2.9 0 5.9 0 8.8-.5 1.7-.3 3.4-.7 5-1.5 1.7-.9 2.8-2.2 3.4-4 .5-1.6.6-3.2.4-4.8-.3-2.6-1.7-4.6-4.1-5.8-1.2-.6-2.4-1-3.7-1.3-2.9-.6-5.7-.7-8.6-.6-1.2 0-2.4.2-3.6.3.1 6.1.1 12.2.1 18.2zm63-17.7h-20.3V.9c.6-.2 54.9-.2 55.7 0v12.8h-20.2V68h-15.2V13.7zm-87.2 53.7c-3.1-8.7-6.2-17.4-9.4-26-5-13.5-10.6-26.8-16.8-39.8-.3-.6-.6-.8-1.2-.8h-12.8s12.7 32.1 15.6 40.7l-13.6.1 4.7 12.3 12.5-.2c1.7 4.8 3.3 9.6 5 14.5h16.2c-.1-.4-.1-.6-.2-.8z"/>
  <circle cx="273.6" cy="58.4" r="10.6" fill="#FF5722"/>
</svg>
