<svg xmlns="http://www.w3.org/2000/svg" viewBox="0 0 115 115">
  <path fill="none" d="M0 0h115v115H0z"/>
  <path fill="#424242" d="M50 40.1v.3c.2.9.8 1.5 1.6 1.9.5.2 1.1.3 1.6.3.7 0 1.5 0 2.2-.2.6-.1 1.1-.2 1.6-.4h.1c.1.2.4 2 .5 3-.1.1-.3.1-.4.2-.6.2-1.3.4-2 .5-.9.1-1.8.2-2.8.2-1.1 0-2.2-.3-3.3-.8-1.4-.7-2.3-1.9-2.8-3.4-.5-1.7-.5-3.4 0-5.2.6-1.8 1.7-3.2 3.5-4 1-.4 2.1-.5 3.2-.4 1 .1 1.9.4 2.8.9 1.2.8 1.9 1.9 2.2 3.2.2.6.2 1.2.3 1.8v2.2c-2.7-.1-5.5-.1-8.3-.1zm4.9-2.6c0-.2 0-.4-.1-.6-.1-.7-.5-1.3-1.2-1.6-.3-.3-.8-.3-1.2-.3-.9 0-1.6.4-2 1.3-.2.3-.2.7-.4 1.1v.2c1.6-.1 3.2-.1 4.9-.1zm36.9-4.8c.6-.1 1.1-.3 1.7-.4 1.4-.3 2.7-.4 4.1-.3.9 0 1.8.1 2.6.5 1.4.6 2.2 1.6 2.6 3.1.2.7.3 1.4.3 2.2v7.7h-3.6v-7.2c0-.5 0-1.1-.2-1.6 0-.1-.1-.3-.1-.4-.2-.5-.6-.8-1.2-1-.2 0-.3-.1-.5-.1-.5 0-1.1 0-1.6.1-.1 0-.2 0-.3.1v10.1h-3.7c-.1-4.3-.1-8.5-.1-12.8zm-69 12.7c-.3.1-3.5.1-3.7 0V32.8c.1 0 .2-.1.3-.1 1.2-.3 2.3-.5 3.5-.6.9-.1 1.8-.1 2.7 0 .7 0 1.3.2 1.9.4 1.3.5 2.1 1.5 2.5 2.9.2.8.3 1.6.3 2.5v7.5c-.2.1-3.4.1-3.7 0v-6.9c0-.5 0-1.1-.1-1.6 0-.1-.1-.3-.1-.4-.2-.7-.6-1.2-1.7-1.3-.6 0-1.2 0-1.8.1-.1 0-.2 0-.3.1.2 3.2.2 6.6.2 10zm46.7-9.9c-.5-.1-1-.3-1.5-.4-.8-.2-1.6-.2-2.4-.1-.2 0-.3.1-.5.2-.6.3-.6 1-.1 1.4.3.2.6.4.9.5l1.5.6c.5.2 1.1.5 1.6.8.3.1.5.3.7.5.5.4.8 1 .9 1.6.1.7.2 1.4 0 2-.2 1-.8 1.8-1.7 2.3-.6.4-1.3.6-2.1.7-1.2.2-2.5.2-3.8 0-.8-.1-1.6-.3-2.3-.6 0 0-.1 0-.1-.1l.6-3c.4.1.8.3 1.2.4 1 .3 2 .4 3 .4.3 0 .6-.1.9-.1.7-.1.8-1 .3-1.4-.2-.1-.3-.3-.5-.4-.5-.2-1.1-.5-1.6-.7-.6-.3-1.3-.5-1.9-.9-.7-.4-1.3-1.1-1.6-1.9-.3-1-.3-2 0-3 .2-.6.7-1.2 1.3-1.6.6-.4 1.3-.7 2.1-.8 1.5-.2 3-.1 4.5.2.3.1.7.2 1 .3 0 1.2-.2 2.1-.4 3.1zm-30.9 5.4c1.1-2.8 1.9-5.7 2.7-8.6h3.8c0 .1 0 .2-.1.3-.6 2.1-1.4 4.3-2.2 6.4-.8 2.1-1.7 4.2-2.7 6.2-.1.2-.2.3-.4.3h-2.5c-.2 0-.3-.1-.4-.2-1.1-2.2-2-4.5-2.9-6.8-.7-1.9-1.4-3.9-2-5.8 0-.1 0-.2-.1-.3h3.9c.4 1.4.8 2.9 1.3 4.3.5 1.3 1 2.8 1.6 4.2zm42.9 1.3c.2 1 .3 1.9.5 2.9-.5.2-.9.3-1.4.4-.8.2-1.6.2-2.4.2-.7 0-1.3-.1-2-.3-1.5-.5-2.4-1.5-2.7-3.1-.2-.8-.2-1.6-.2-2.4V29c1.2-.2 2.4-.4 3.7-.6v3.8h4.4c.1.2.1 2.8 0 3.1H77v4.5c0 .5 0 1 .2 1.6.2.7.7 1 1.4 1.1.9.1 1.7 0 2.6-.3h.3zm6.8-9.9v13.1c-.2.1-3.3.1-3.6 0 0-.2-.1-12.8 0-13.1h3.6zm-76.4 0h3.7v13.1c-.2.1-3.4.1-3.7 0V32.3zm54.5 40.4c3.2 4.2 5.9 8.6 8.1 13.4h-8.3c-.2-.3-.3-.6-.5-.9-1.4-2.5-2.7-5-4.3-7.3-.8-1.2-1.6-2.3-2.4-3.4-.1-.2-.3-.3-.6-.3h-3.3v12h-7.4V53.9c.2 0 .5-.1.7-.1 2-.4 4.1-.5 6.1-.6 1.9-.1 3.8-.1 5.7 0 2.2.2 4.4.6 6.5 1.5 1.1.5 2.1 1.1 3 1.9 1.2 1.1 1.9 2.4 2.3 4 .5 1.9.5 3.8.2 5.7-.4 2.2-1.6 3.9-3.4 5.2-.7.5-1.4.9-2.1 1.2-.1-.1-.2 0-.3 0zm-11.3-4.4h1.1c1.4 0 2.9 0 4.3-.2.8-.1 1.7-.3 2.4-.7.8-.4 1.4-1.1 1.7-2 .3-.8.3-1.6.2-2.4-.2-1.3-.8-2.2-2-2.8-.6-.3-1.2-.5-1.8-.6-1.4-.3-2.8-.3-4.2-.3-.6 0-1.1.1-1.7.1v8.9zm30.7-8.7h-9.9v-6.2c.3-.1 26.8-.1 27.1 0v6.3h-9.9v26.5h-7.4V63.5c.1-1.3.1-2.6.1-3.9zM43.3 85.8c-1.5-4.2-3-8.5-4.6-12.7-2.5-6.6-5.2-13.1-8.2-19.4-.1-.3-.3-.4-.6-.4h-6.2s6.2 15.7 7.6 19.8h-6.6l2.3 6 6.1-.1c.8 2.4 1.6 4.7 2.4 7.1h7.9c-.1-.1-.1-.2-.1-.3z"/>
  <circle cx="17.1" cy="81.4" r="5.2" fill="#FF5722"/>
</svg>
