<svg xmlns="http://www.w3.org/2000/svg" viewBox="0 0 9514.3 4450">
  <path fill="none" d="M0 0h9514.3v4450H0z"/>
  <path fill="#757575" d="M4965.9 445c142.2 166.3 292 331.3 441.3 491.2-8.7-8.1-17.9-15.5-26.7-23.4 56.5 153.1 238.9 210.6 315.7 349.3-101.1-57.9-170-153-252.1-233.3-115.8-113.3-233-226.6-351.8-336.8-81.4-75.5-334.9-336-335.3-336.4-1.3 1.1-.9-.7 0 0 1.1-2-95.6 117.9-129.3 152-31.2 31.5-105.9 140.8-136.8 172.5-34.7 35.6-69.4 71.2-104 106.9-37.7 38.9-75.2 77.9-112.8 116.8-21 21.7-42.2 43.2-63.3 64.9-34.4 35.5-68.6 71.2-103 106.6-22.1 22.8-44.4 45.5-66.6 68.3-35.1 36.1-70.1 72.3-105.2 108.4-28.6 29.3-57.2 58.5-85.9 87.7L3749 1442.9c-18.8 19.1-37.6 38.1-56.5 57.1l-166.8 167.1c-2.4 2.4-4.3 5.4-7.9 6.4-.3-1.7-.5-3.2-.8-5.6-1.4 1.1-2.3 1.7-3.1 2.5-16.4 16.1-32.8 32.2-49.3 48.2-29.1 28.4-58.2 56.7-87.2 85-38.3 37.4-76.6 74.7-114.9 112.1-28 27.2-55.9 54.4-83.9 81.7-2.3 2.2-4.6 4.3-6.7 6.6-13.3 14-28 26.1-43.5 37.6-12.4 9.1-24.3 19-36 29-43.7 37.6-84.7 78-125.1 119.2-10.4 10.6-20.9 21-31.1 31.7-6.3 6.6-12.1 13.6-18.1 20.5-.6.7-.8 1.7-1.3 2.8 1.5 1.5 2.9 3.1 4.6 4.5 8.1 7 16.4 13.7 24.4 20.9 13.3 12.1 26.3 24.4 39.5 36.6 32.9 30.7 65.9 61.3 98.7 92.1 34.2 32.1 68 64.6 102.2 96.7 35.3 33.2 69 68.1 103.3 102.3 24.3 24.3 48.4 48.6 72.5 73 41.1 41.7 82.3 83.3 123.3 125.1 43.7 44.5 87.2 89.1 130.7 133.7 34.7 35.6 69.4 71.2 104.2 106.8 36 37 72.1 73.9 108.2 110.8 35 35.8 69.9 71.6 105 107.3 59.1 60.2 118.3 120.3 177.6 180.3 52.3 52.8 104.6 105.5 157.2 158 46.6 46.5 93.4 92.7 140.5 138.7 43.5 42.4 87.3 84.5 131.2 126.5 37.1 35.5 74.3 70.8 111.9 105.7 28.3 26.4 56.9 52.5 84 80.2 2.4 2.4 4.8 4.9 8.1 6.6 4-2.4 6.4-6.3 9.6-9.2 3-2.8 5.8-5.7 8.7-8.7 16.7-17.1 33.3-34.4 50.1-51.4 45.1-45.7 90.4-91.3 135.6-136.9 56.3-56.8 112.5-113.6 169-170.3 23.8-23.9 47.8-47.4 71.9-71 31-30.4 61.9-61 93.3-91 38.6-37 77.7-73.6 116.6-110.3 14.9-14 29.9-27.9 45.2-41.5 18.8-16.8 37.7-33.4 56.8-49.7 28.3-24.1 57-47.7 84.5-72.5 23.6-21.3 47.4-42.3 71.3-63.4 29.3-25.8 58.5-51.7 88-77.3 12.8-11.1 26.3-21.5 39.6-32.1 2.7-2.1 5.7-3.9 8.7-5.6.6-.4 1.7-.1 3.2-.2-.5 3.6-2.2 6.1-4.1 8.5-4.1 5.2-8.3 10.3-12.3 15.5-5.8 7.4-12.4 14.2-17.5 22.2-2.6 4.2-6.2 8-9.5 11.8-14 16.2-28.2 32.2-42.1 48.5-7.1 8.4-13.9 17.1-20.6 25.8-1.9 2.4-3.3 5.2-5.7 9.1 2.6-.5 4.2-.4 5.1-1.1 8.4-6.6 17-13 25-20 20.4-17.8 40.6-35.9 58.8-55.9 21.4-23.5 42.7-47.1 64-70.7 9.3-10.3 18.4-20.7 27.7-31 18.9-21.1 37.8-42.2 56.8-63.2 26.9-29.5 53.7-59.3 81.3-88.2 24.8-26 50.3-51.2 76-76.2 21.2-20.7 43.6-40 67.7-57.3 5.9-4.2 12-8.1 18-12.1 1.8-1.1 3.8-1.9 5.9-2.9-.2 10.5-3.6 18.8-9.6 24.8-18.3 18.2-36.8 36.2-54.7 54.9-14.4 15-28 30.7-42 46-5.5 6-11.2 12-16.7 18-3.6 3.9-3.5 3.9-4.3 11.3 2.7-.7 4.2-2.7 5.9-4.3 17.9-17.2 36-34.4 53.6-51.9 57-56.5 113.9-113.2 170.8-169.8 27-26.9 54-53.8 81.1-80.5 50.2-49.6 100.2-99.2 150.7-148.4 31.8-31 64.1-61.4 96.6-91.6 19.4-18 39.3-35.4 59.5-52.4 11.5-9.7 24.2-18 36.4-26.9 5.3-3.9 10.7-7.6 16.8-10.6-1.2 1.6-2.2 3.3-3.5 4.7-15.1 16.1-30 32.3-45.3 48.1-16.4 17-33 33.8-49.8 50.4-29.1 28.7-58.7 57.1-87.8 85.9-18.4 18.2-36.3 36.7-54.2 55.3-5.9 6.1-11 13-16.5 19.4-3.1 3.6-6 7.2-9.4 10.5-24.4 23.7-49 47.1-73.3 70.9-26.2 25.5-52.3 51-78.1 76.8-23.9 23.8-47.4 47.9-71.1 71.8-17.9 18.1-35.8 36.4-53.7 54.5-31.2 31.6-62.4 63.2-93.5 94.8-45.9 46.7-91.7 93.4-137.7 140-30.3 30.7-60.8 61.2-91.3 91.7-16.9 16.9-34 33.7-51.2 50.3-4.2 4.1-7.3 8.5-8.5 14.3-.4 1.8-1.2 3.6-1.5 5.4-1.1 5.5-4.3 9.4-8.3 13.3-14.9 14.5-29.7 29.1-43.9 44.2-19.1 20.5-37.8 41.4-56.3 62.4-10.1 11.4-22.3 20.3-33.7 30.2-10.9 9.5-22.4 18.4-33.1 28.2-7.2 6.6-13.5 14.1-20 21.4-11 12.2-21.7 24.5-32.7 36.6-17.9 19.9-35.8 39.8-53.7 59.6-2.1 2.3-4.4 4.4-7.6 7.6.5-2.4.8-3.4 1.1-4.8-.8-.1-1.8-.5-2.3-.1-1.6 1-3 2.2-4.4 3.6-15.4 15.3-31.1 30.3-46.1 46-8.5 8.8-16.2 18.5-23.7 28.2-3.6 4.7-6.2 10.2-8.9 15.5-2 3.9-3.5 8.1-5.2 12.1l-6.7 6.7c-.3-2.8-.5-5.6-1-8.4-1-4.9-3.7-7.1-8.8-6.3-3.7.6-7.5 1.6-10.7 3.4-9.1 5-18.3 10-26.7 16-16.4 11.7-32.3 24-48.3 36.2-12.5 9.6-24.7 19.5-35.6 30.9-5.9 6.1-12 12-18 18.1 2.4-5.1 5.4-9.7 8.3-14.4.6-1.1 1.8-2.8-.6-3.8-.7.5-1.6.9-2.2 1.6-7.9 8.6-15.7 17.2-23.5 25.9-4.8 5.4-13.3 12.6-20.8 16.9 8.5-9.5 16.2-17.8 23.4-26.5 6-7.2 11.5-15 17-22.6.8-1.1.8-2.8 1.5-5.3-16.4 8.2-26.8 22.3-41.5 30.7 1.2-1.9 2.8-3.4 4.3-5l38.3-39.2c12.9-13.3 25.8-26.7 38.7-40.1 3.7-3.8 6.6-8.2 9.2-14.8-2.7 2.2-4.2 3.2-5.4 4.5-12.6 12.3-25.4 24.5-37.8 37-26.4 26.5-52.8 53.1-79.1 79.9-30.4 31-60.8 62-91 93.3-38.4 39.9-76.7 79.9-114.6 120.3-35.7 38.1-70.9 76.7-106.3 115.2-6.9 7.5-13.3 15.4-20 23.1 26-21.3 49.3-45.5 74.3-68.6-1.3 4.7-4.4 7.5-7.1 10.4-30.5 32.6-61 65.3-91.7 97.8-26.2 27.7-36 49.6-62.4 77.1-1.5 1.5-19.3 9.1-22.7 8.5-.9-.9-21.9-8.5-3.6-3.6-15.9-15.3-31.7-30.6-47.7-45.8-38.8-36.9-77.6-73.7-116.4-110.6-37.2-35.4-74.3-70.7-111.5-106.1-37.8-36-75.7-72.1-113.5-108.1-36.9-35.2-73.8-70.3-110.8-105.5-35.4-33.6-70.8-67.2-106.1-100.8-27.6-26.2-55.3-52.4-82.9-78.7-5.3-5-10.8-9.5-17.4-12.8l-12-12c2.8-1.3 5.5-.4 8.3.4 8.5 2.5 16.9 4.9 25.4 7.4 1.4.4 3 1.4 4.1-1.3l-6.5-6.5c-19-18.8-38.1-37.6-57-56.5-85-85.1-169.9-170.2-254.8-255.3l-121.4-121.7c-20.7-20.7-41.3-41.5-62-62.2-40.7-40.8-81.4-81.6-122-122.4-38.4-38.6-76.7-77.4-115-116l-98.4-99.3c-19.3-19.4-38.6-38.9-57.9-58.3-66.5-67.1-132.9-134.2-199.4-201.2-35.9-36.2-31.1-31.3-67-67.4-17.1-17.2-63-50.3-80-67.5-1.9-1.9-16.6-28.6-16.9-32.6 2.1-2.2 25.6-31.8 28-34.2 34-33.6 46.9-40 80.9-73.7 34.7-34.3 69.2-68.8 103.9-103.1 58.6-58 117.3-116 175.9-174 35.1-34.8 70.2-69.6 105.2-104.4 50.5-50.1 101-100.2 151.6-150.2 28.4-28.1 56.9-56.2 85.2-84.4 51.8-51.5 103.5-103 155.3-154.6 48.2-48 96.4-95.9 144.5-144 262.7-262.7 526.2-524.5 785.4-790.5-14.8 16.7-31.5 31.8-47.2 47.6 43.5-69.8 103-183.4 192.8-196.4 0 0 149.1 97.9 197.7 154.8 2.5 2.7 4.8 5.5 7.2 8.3zM6581 2119.2c-4.3-4.1-8.7-8.1-12.8-12.4-25-25.8-50.8-50.6-78.2-73.9-1.7-1.4-3.1-3.1-4.6-4.8-4.4-4.9-8.5-10.1-13.2-14.7-11.5-11.2-23.4-22-35-33.1-4.3-4.1-8.9-8.3-11.9-13.3-4-6.5-9-12-14.3-17.4-43-43.3-86-86.7-129.2-129.9-45.2-45.2-90.1-90.6-132.9-138.1-6.1-6.8-13.2-11.3-21.6-14.7-6.7-2.7-13.3-5.7-19.6-9.1-11.6-6.4-22.1-14.4-32.2-23-4-3.4-8.2-6.4-13.5-8.1 6.2 7.5 12.4 15.1 18.6 22.6-.3.3-.6.6-.9.8-14.8-13.6-29.5-27.2-44.3-40.8.5 1.6 1.5 2.7 2.5 3.8 17.4 18.2 34.8 36.4 52.2 54.5 42.9 44.7 85.8 89.5 128.8 134.2 41 42.7 82 85.3 123.1 127.9 3.3 3.4 6.9 6.4 10.5 9.5 7.4 6.4 15.2 12.3 22.1 19.2 19.9 19.7 39.4 39.8 59.1 59.7 2.2 2.2 4.3 5 7.1 6.1 4.4 1.6 7.5 4.6 10.6 7.6 5 4.8 9.7 9.9 14.5 14.8 17.3 17.8 33.9 36.4 54.4 50.8.2-.5.3-1 .6-1.5.1-.1.4-.2.7-.3l64.5 63c-.6-3.3-2.2-5.9-3.5-8.6-.4-.9-.3-2.1-.4-3.9 3.7 1.7 6.2 4.7 10.1 2.3.9-.6 3 .4 4.4 1.1 2.6 1.1 5.1 2.4 7.5 3.9 7.1 4.1 14 8.4 21.1 12.5 2 1.1 4.1 1.9 6.2 2.8-1.7-3.5-4-6-6.3-8.6-2.1-2.4-4.1-4.8-6.2-7.1-2.3-2.6-4.8-5-7-7.6-2.1-2.4-4.8-4.3-6.2-8.2 1.8.7 2.6 1.1 3.9 1.6-1.2-2.7-3.4-4-5-5.7-5.9-6.1-12.1-11.9-17.8-18.3-9.8-11.1-20.8-21-32.1-30.6-2.4-2-4.8-3.8-7.2-5.8 4.4 7.8 10.4 14 16.2 20.4 5.9 6.5 12.1 12.8 18.1 19.1-.3.5-.6.9-.9 1.3zm83 67.8c-3.3-3.8-7.1-7.2-10.6-10.7l-10-10-10.7-10.7c-3.3-3.3-6.6-6.7-10-10-3.4-3.3-5.9-7.5-11.3-10.6 2.7 4.7 3.6 8.6 6.8 11.6 18 17.1 35.8 34.5 54.3 52.4-.7-6.5-5.5-8.6-8.5-12zm-615.4-579.8c5.1 6.2 10.5 12.2 18.2 18.8-5.2-9.1-12.1-13.6-18.2-18.8z"/>
  <path fill="#76FF03" d="M4735.7 3774c-14.7-.6-28.2-7-40.5-19.2-12.3-12.3-18.7-25.7-19.2-40.5-.6-14.7 6.7-29.7 21.8-44.8 15.1-15.1 30.1-22.4 44.8-21.8 14.7.6 28.3 7 40.5 19.2 12.3 12.3 18.7 25.8 19.2 40.5.6 14.7-6.7 29.7-21.8 44.8-15.1 15.1-30.1 22.4-44.8 21.8z"/>
  <path fill="#F4511E" d="M5033.1 3490.4l-225.2-401 120.6-106.9 367.1 245.3-35 48.8-110.9-45.4-114.9 135.6 51.7 83.9-53.4 39.7zm-145.3-362.6l119.5 194.2 107.4-105.1-223.5-92.5-3.4 3.4zm634.3-365.5c-3.4 7.3-6.9 12.6-10.3 16.1l105.7 131-42.5 51.7-329.8-275.8c11.1-21.8 28.3-48.7 51.4-80.7 23.2-32 47.4-60.6 72.7-85.9 40.2-40.2 79.9-64.9 118.9-74.1 22.2 11.5 40.4 24.3 54.6 38.5 39.5 39.5 49.6 94.8 30.4 166l228.7 71.2-14.4 51.1-265.4-9.1zm-56.8-175.2c-22.2-22.2-49.2-29.7-81-22.4-7.7 7.7-14.4 17.8-20.1 30.4l121.2 150c11.9-31.8 15.6-61.9 11.2-90.5-4.4-28.5-14.9-51-31.3-67.5zm248.9-391.4l233.8-246.5 30.5 32.7-59.2 73 247 305.6-46.5 55.7-294.8-246.3-59.2 71.8-51.6-46z"/>
  <path fill="#424242" d="M3308.9 2322.1l73.3-89.1 30.5 27.6-89.4 73.8-14.4-12.3zm282.9 122.6l-85.1 76.1-12.5-9.2 25.5-106.3-.9-.9-62.7 64.7-12.5-11.6 82.5-77.6 31 28-39.1 83.3.9.9 60.3-59.2 12.6 11.8zm126.7 128.1l-50.9 71.9 1.2 1.2 78.1-44.2 8 14.2-103.7 52.3-12.7-9.3 49-110.9 31 24.8zm117.2 284l-48.4-47.3 74.1-87.1 55 52.9-8.6 7.8-28.5-23.1-28.2 22.5 26 25.9-10.3 11.8-25.2-30-30.2 24.3 37.2 30.1-12.9 12.2zm158.7 53.3c11.3-11.6 27.8-16.1 49.6-13.6l7.4 37.7c-16.3-3.8-28-2.1-35.1 5.1-3 3-5.1 7.2-6.3 12.7-1.3 5.4-2.5 10.9-3.7 16.3-1.2 5.4-3.2 9.6-6 12.5-11.6 11.9-28.7 12.8-51.2 2.9l2.1-13.9c6.1 1.8 10.9 2.5 14.5 2 3.5-.5 6.5-2 9-4.5s4.3-6.3 5.4-11.2c1.1-5 1.8-9.9 2.1-14.8.2-4.9 1.4-10.2 3.4-16.1 1.7-6 4.7-11 8.8-15.1zm167 118.5l63.3 61.3-8.4 8-18.7-15.5-78.5 64.8-14.3-12.2 63.3-77.3-18.4-15.5 11.7-13.6zm92.5 258.7l73.3-89.1 30.5 27.6-89.4 73.8-14.4-12.3zm282.9 122.6l-85.1 76.1-12.5-9.2 25.5-106.3-.9-.9-62.7 64.7-12.5-11.6 82.5-77.6 31 28-39.1 83.3.9.9 60.3-59.2 12.6 11.8z"/>
</svg>
